<svg data-name="Layer 1" xmlns="http://www.w3.org/2000/svg" xmlns:xlink="http://www.w3.org/1999/xlink" viewBox="0 0 930 796"><defs><linearGradient id="a" x1="476.5" y1="796" x2="476.5" y2="356" gradientUnits="userSpaceOnUse"><stop offset="0" stop-color="#b3b3b3" stop-opacity=".25"/><stop offset=".54" stop-color="#b3b3b3" stop-opacity=".1"/><stop offset="1" stop-color="#b3b3b3" stop-opacity=".05"/></linearGradient><linearGradient id="b" x1="233" y1="468" x2="233" y2="390" xlink:href="#a"/></defs><path d="M692 362s28-104-28-211" fill="none" stroke="#e0e0e0" stroke-linecap="round" stroke-linejoin="round" stroke-width="10" stroke-dasharray="0 23"/><path d="M308.1 328.15c9.88-40.36 12.83-124.5-117.66-160.22" fill="none" stroke="#e0e0e0" stroke-linecap="round" stroke-linejoin="round" stroke-width="10" stroke-dasharray="0 23.61"/><path fill="url(#a)" d="M71 356h811v440H71z"/><path fill="#fff" d="M78 362h798v422.5H78z"/><circle cx="233" cy="429" r="39" fill="url(#b)"/><circle cx="233" cy="429" r="35" fill="#6C63FF"/><path fill="#64ffda" d="M313 416h197v20H313z"/><path fill="#f5f5f5" d="M232.5 545.5h492v20h-492zm0-44h492v20h-492zm0 88h492v20h-492zm0 44h492v20h-492zm0 44h492v20h-492zm0 44h492v20h-492z"/><path d="M155.59 332.76c.76-21.62-1.88-53.94-20.78-75.41" fill="none" stroke="#bdbdbd" stroke-linecap="round" stroke-linejoin="round" stroke-width="10" stroke-dasharray="0 22.87"/><path d="M607.59 341.76c.76-21.62-1.88-53.94-20.78-75.41" fill="none" stroke="#e0e0e0" stroke-linecap="round" stroke-linejoin="round" stroke-width="10" stroke-dasharray="0 22.87"/><path d="M795.41 332.76c-.76-21.62 1.88-53.94 20.78-75.41" fill="none" stroke="#bdbdbd" stroke-linecap="round" stroke-linejoin="round" stroke-width="10" stroke-dasharray="0 22.87"/><path fill="#64ffda" opacity=".7" d="M0 114.78h111v60.43H0zm608-41h111v60.43H608zm-95 108h111v60.43H513z"/><path fill="#6C63FF" d="M83 127.58h180.78v98.41H83zm666.22 5H930v98.41H749.22zM339.71 0h180.78v98.41H339.71z"/><path d="M422.82 332.22c6.13-21.36 10.12-55.49-9.32-90.72-24-43.51-2.42-85.9 9.85-104.36" fill="none" stroke="#bdbdbd" stroke-linecap="round" stroke-linejoin="round" stroke-width="10" stroke-dasharray="0 24.01"/></svg>